<svg width="85" height="85" viewBox="0 0 85 85" fill="none" xmlns="http://www.w3.org/2000/svg">
<path d="M42.5 0.9375C34.2797 0.9375 26.244 3.3751 19.4091 7.94204C12.5742 12.509 7.24704 19.0002 4.10127 26.5947C0.955501 34.1893 0.132425 42.5461 1.73612 50.6084C3.33982 58.6708 7.29826 66.0765 13.1109 71.8891C18.9235 77.7017 26.3292 81.6602 34.3916 83.2639C42.4539 84.8676 50.8107 84.0445 58.4053 80.8987C65.9998 77.753 72.491 72.4258 77.058 65.5909C81.6249 58.756 84.0625 50.7203 84.0625 42.5C84.0625 31.4769 79.6836 20.9054 71.8891 13.1109C64.0947 5.31639 53.5231 0.9375 42.5 0.9375ZM64.6083 45.157L28.9833 62.9695C28.5306 63.1958 28.0275 63.3025 27.5219 63.2796C27.0164 63.2567 26.525 63.1049 26.0946 62.8387C25.6642 62.5725 25.309 62.2006 25.0627 61.7585C24.8164 61.3164 24.6873 60.8186 24.6875 60.3125V24.6875C24.6878 24.1817 24.8173 23.6843 25.0638 23.2425C25.3103 22.8008 25.6655 22.4294 26.0959 22.1635C26.5262 21.8976 27.0174 21.7461 27.5227 21.7233C28.028 21.7006 28.5308 21.8073 28.9833 22.0334L64.6083 39.8459C65.1008 40.0928 65.5148 40.4717 65.8042 40.9404C66.0936 41.4092 66.2468 41.9492 66.2468 42.5C66.2468 43.0508 66.0936 43.5908 65.8042 44.0596C65.5148 44.5283 65.1008 44.9072 64.6083 45.1541V45.157Z" fill="white"/>
</svg>
